<?xml version="1.0" encoding="UTF-8"?>
<svg id="Layer_1" xmlns="http://www.w3.org/2000/svg" version="1.1" viewBox="0 0 1920 1080">
  <!-- Generator: Adobe Illustrator 29.8.1, SVG Export Plug-In . SVG Version: 2.1.1 Build 2)  -->
  <defs>
    <style>
      .st0 {
        letter-spacing: .02em;
      }

      .st0, .st1 {
        fill: #1a408b;
        font-family: ConthraxSb-Regular, Conthrax;
        font-size: 250.38px;
      }

      .st2 {
        fill: #fff;
      }

      .st3 {
        fill: none;
        stroke: #fff;
        stroke-miterlimit: 10;
      }

      .st4 {
        fill: #d33c29;
      }

      .st5 {
        fill: #233e86;
      }

      .st1 {
        letter-spacing: .02em;
      }
    </style>
  </defs>
  <g>
    <text class="st0" transform="translate(691.46 624.94)"><tspan x="0" y="0">L </tspan></text>
    <text class="st1" transform="translate(967.89 619.61)"><tspan x="0" y="0">F</tspan></text>
  </g>
  <g>
    <path class="st4" d="M917.62,625.48l.49-24.52s-.03-3.45,4.59-3.35c4.61.1,19.62.08,19.62.08,0,0,8.16,1.74,7.5-5.44s-1.6-17.24-1.6-17.24c0,0,.41-2.67-2.78-4.32l-2.11-.76s4.7-.89,4.93-2.07c.23-1.18,2.34-15.88,2.34-15.88l14.33-.13s4.11.1,2.66-3.25-8.76-20-8.76-20l-3.31-8.02s-1.65-3.42-4.4-3.09c-2.75.33-8.11.24-8.11.24,0,0-6.54-.03-7.24-5.86l.11-5.01,10.03.13s3.97.35,3.66-3.57l-.94-2.53-4.64-10.61s-6.49-14.24-13.39-21.14c-6.9-6.9-21.23-23.06-52.62-24.96-31.38-1.9-46.53,9.37-56.21,16.07-9.68,6.7-21.25,21.53-25.01,35.37,0,0-6.43,18.76-2.03,37.79,3.85,16.67,6.9,22.52,6.9,22.52l2.89,6.92s7.42-7.79,8.82-10.48c1.35-2.6,3.34-7.02.17-13.08-3.17-6.06-3.95-17.78-4.01-19.25s-.28-12.54,2.35-19.66c2.37-6.41,8.76-18.92,18.65-27.05,0,0,12.22-11.83,33.3-11.8,0,0,24.23-1.77,43.23,15.57,0,0,10.3,8.52,14.26,23.05,3.96,14.54,2.85,26.07.72,33.26-1.63,5.51-6.98,16.82-14.46,25.03l-4.13,4.37c-.25.27-.54.5-.84.71-1.09.78-4.01,3.62-4.12,11.51-.14,9.71-.47,33.2-.47,33.2,0,0-1.26,13.03,13.21,16.94,0,0,5.51.76,6.46.3Z"/>
    <g>
      <path class="st5" d="M819.47,518.18s0-28.05,23.45-40.62c20.59-11.04,49.85-9.16,64.62,17.98,14.77,27.14-4.69,50.99-4.69,50.99,0,0-15.11,18.32-38.22,17.11-16.55.06-20.85-5.57-20.85-5.57,0,0-4.95-3.89-.91-10.24,4.04-6.35,19.15-24.5,19.15-24.5,0,0-8.08-.26-20.85,7.91,0,0-3.5-6.2-10.42-2.46,0,0,1.97-5.05-1.65-9.02-1.58-1.73-3.78-2.79-6.14-2.75-2.39.04-3.5,1.18-3.5,1.18Z"/>
      <g>
        <g>
          <path class="st3" d="M868.61,523.63l-8.35-9.77,15.02-12.97c.38-.33.78-.6,1.23-.82,1.62-.78,5.74-2.34,11.15-1.37,0,0,1.1,5.05-2.77,10.66-.41.59-.92,1.11-1.46,1.58l-14.82,12.69Z"/>
          <path class="st3" d="M869.19,506.14s-5.05-1.68-8.93-.21c-3.68,1.4-10.36,8.01-10.36,8.01l10.36-.09"/>
          <path class="st3" d="M868.61,523.63l-.52,9.54s6.83-4.16,9.24-9.25c.51-1.08.66-2.29.59-3.48l-.24-4.25"/>
          <circle class="st2" cx="879.4" cy="506.12" r="2"/>
        </g>
        <path class="st2" d="M846.78,492.95c0,1.61-1.31,2.92-2.92,2.92s-2.92-1.31-2.92-2.92,1.31-2.92,2.92-2.92,2.92,1.31,2.92,2.92Z"/>
        <circle class="st2" cx="897.32" cy="510.04" r="2.79"/>
        <circle class="st2" cx="897.31" cy="535.63" r="1.77"/>
        <circle class="st2" cx="867.43" cy="550.95" r="1.76"/>
      </g>
    </g>
  </g>
</svg>